<svg preserveAspectRatio="none" width="100%" height="100%" overflow="visible" style="display: block;" viewBox="0 0 83.2907 13.1096" fill="none" xmlns="http://www.w3.org/2000/svg">
<g id="Group 1000003839">
<path id="Star 6" d="M6.55308 0.00312499L8.02434 4.53119H12.7854L8.93363 7.32969L10.4049 11.8578L6.55308 9.05926L2.70128 11.8578L4.17253 7.32969L0.320731 4.53119H5.08182L6.55308 0.00312499Z" fill="var(--fill-0, #00C950)"/>
<path id="Star 7" d="M24.0294 0.00337188L25.5007 4.53144H30.2618L26.4099 7.32994L27.8812 11.858L24.0294 9.05951L20.1776 11.858L21.6489 7.32994L17.7971 4.53144H22.5581L24.0294 0.00337188Z" fill="var(--fill-0, #00C950)"/>
<path id="Star 8" d="M41.5018 0.00337188L42.973 4.53144H47.7341L43.8823 7.32994L45.3536 11.858L41.5018 9.05951L37.65 11.858L39.1212 7.32994L35.2694 4.53144H40.0305L41.5018 0.00337188Z" fill="var(--fill-0, #00C950)"/>
<path id="Star 9" d="M58.9781 0.00337188L60.4494 4.53144H65.2104L61.3586 7.32994L62.8299 11.858L58.9781 9.05951L55.1263 11.858L56.5975 7.32994L52.7457 4.53144H57.5068L58.9781 0.00337188Z" fill="var(--fill-0, #00C950)"/>
<g id="Group 1000004269">
<path id="Star 10" d="M76.7377 0.000390625L78.2089 4.52846H82.97L79.1182 7.32696L80.5895 11.855L76.7377 9.05653L72.8858 11.855L74.3571 7.32696L70.5053 4.52846H75.2664L76.7377 0.000390625Z" fill="var(--fill-0, #00C950)"/>
<g id="Mask group">
<mask id="mask0_0_508" style="mask-type:alpha" maskUnits="userSpaceOnUse" x="70" y="0" width="13" height="12">
<path id="Star 11" d="M76.7377 0L78.2089 4.52807H82.97L79.1182 7.32657L80.5895 11.8546L76.7377 9.05614L72.8858 11.8546L74.3571 7.32657L70.5053 4.52807H75.2664L76.7377 0Z" fill="var(--fill-0, #DEA453)"/>
</mask>
<g mask="url(#mask0_0_508)">
<rect id="Rectangle 6779" x="79.1846" width="3.9" height="12" fill="var(--fill-0, #E1E1E1)"/>
</g>
</g>
</g>
</g>
</svg>
